<svg width="26" height="35" viewBox="0 0 26 35" fill="none" xmlns="http://www.w3.org/2000/svg">
  <path d="M13.442 22.5992C8.35142 19.7033 3.08602 16.7099 1.01044 12.1948C0.946051 12.0764 0.838955 11.9866 0.710612 11.9433C0.582269 11.8999 0.442162 11.9063 0.318367 11.9612C0.194572 12.016 0.0962359 12.1152 0.0430639 12.2389C-0.0101081 12.3627 -0.0141877 12.5017 0.0316432 12.6283C5.98964 26.0782 8.31646 27.0948 15.2248 30.1143C18.5874 31.5423 21.8694 33.1501 25.0565 34.9306C25.1371 34.976 25.2282 34.9999 25.3209 35C25.4328 34.9992 25.5419 34.9644 25.6333 34.9003C25.7171 34.8413 25.7822 34.7597 25.8209 34.6653C25.8596 34.5708 25.8703 34.4674 25.8518 34.3671C24.8118 29.063 19.2886 25.9243 13.442 22.5992Z" fill="#EA5449"/>
  <path d="M12.7949 18.1276C14.4882 20.5856 16.0962 21.3789 17.7982 22.2005C18.5407 22.5472 19.2621 22.9365 19.9589 23.3666C21.3135 24.2336 25.1151 27.3355 25.1522 27.368C25.245 27.4442 25.3617 27.4856 25.4821 27.485C25.5658 27.485 25.6483 27.4649 25.7225 27.4265C25.8133 27.3802 25.8881 27.3079 25.9371 27.2191C25.9862 27.1302 26.0073 27.0288 25.9978 26.928C25.8754 25.4995 24.9054 23.3363 23.4481 21.2792C21.6237 18.6844 19.2522 16.5144 16.4982 14.9195C13.5028 13.1985 9.78862 9.20359 9.02393 5.99556C8.99496 5.86219 8.91377 5.7457 8.79822 5.67172C8.68268 5.59773 8.54224 5.57232 8.40781 5.60106C8.27338 5.62981 8.15596 5.71036 8.08139 5.82499C8.00682 5.93962 7.9812 6.07895 8.01018 6.21232C8.0648 6.49411 9.39535 13.192 12.7949 18.1276Z" fill="#EA5449"/>
  <path d="M20.1358 14.2606C20.6394 14.6437 21.1201 15.0555 21.5756 15.4939C22.4604 16.361 24.8288 19.3479 24.8528 19.3782C24.8969 19.4335 24.953 19.4782 25.0169 19.509C25.0809 19.5398 25.151 19.5558 25.2221 19.556C25.2641 19.5555 25.306 19.5497 25.3466 19.5386C25.4357 19.5139 25.5155 19.4637 25.5761 19.3944C25.6367 19.325 25.6754 19.2395 25.6874 19.1485C25.8338 18.0343 25.4493 16.2157 24.6846 14.4058C23.7252 12.1269 22.2783 10.0819 20.4439 8.41241C18.4775 6.62632 16.3211 2.99344 16.2709 0.457366C16.2686 0.335275 16.2181 0.218955 16.1302 0.133423C16.0424 0.0478919 15.9242 -1.56781e-05 15.8011 5.45712e-06C15.6783 -0.000585501 15.5601 0.0468413 15.4722 0.132027C15.3843 0.217212 15.3337 0.333307 15.3314 0.455198C15.3314 0.671957 15.2222 5.99989 16.9897 10.3199C17.8723 12.4788 18.9647 13.3437 20.1358 14.2606Z" fill="#EA5449"/>
</svg>